<?xml version="1.0" standalone="no"?>
<!DOCTYPE svg PUBLIC "-//W3C//DTD SVG 20010904//EN"
 "http://www.w3.org/TR/2001/REC-SVG-20010904/DTD/svg10.dtd">
<svg version="1.0" xmlns="http://www.w3.org/2000/svg"
 width="270.000000pt" height="270.000000pt" viewBox="0 0 270.000000 270.000000"
 preserveAspectRatio="xMidYMid meet">
<metadata>
Created by potrace 1.11, written by Peter Selinger 2001-2013
</metadata>
<g transform="translate(0.000000,270.000000) scale(0.100000,-0.100000)"
fill="#000000" stroke="none">
<path d="M1229 2696 c-2 -2 -24 -6 -49 -10 -88 -11 -109 -15 -152 -27 -24 -6
-47 -12 -53 -14 -5 -1 -19 -5 -30 -9 -249 -90 -381 -172 -550 -341 -106 -106
-191 -223 -254 -352 -38 -76 -96 -235 -106 -291 -3 -15 -7 -38 -10 -52 -14
-67 -20 -146 -19 -265 1 -119 5 -165 19 -235 3 -14 7 -37 10 -52 24 -131 161
-426 231 -495 8 -8 14 -18 14 -23 0 -20 220 -230 296 -283 129 -90 351 -190
472 -212 15 -3 38 -7 52 -10 93 -21 324 -27 435 -12 32 5 62 10 65 12 3 2 21
6 40 9 100 16 389 135 430 176 3 3 23 17 45 32 178 117 368 344 462 553 60
131 92 247 114 413 9 64 8 297 -1 297 -1 0 -3 11 -4 25 -14 120 -61 278 -117
396 -35 72 -111 198 -135 222 -8 7 -14 17 -14 22 0 22 -232 240 -310 292 -70
46 -200 119 -220 124 -3 0 -18 6 -35 13 -79 34 -206 69 -315 87 -42 7 -305 16
-311 10z"/>
</g>
</svg>
